<svg width="21" height="16" viewBox="0 0 21 16" fill="none" xmlns="http://www.w3.org/2000/svg">
<g id="twitter">
<mask id="mask0_1152_128" style="mask-type:luminance" maskUnits="userSpaceOnUse" x="0" y="0" width="21" height="16">
<path id="Clip 2" fill-rule="evenodd" clip-rule="evenodd" d="M0.619677 15.9892H20.1749V0.05896H0.619677V15.9892Z" fill="white"/>
</mask>
<g mask="url(#mask0_1152_128)">
<path id="Fill 1" fill-rule="evenodd" clip-rule="evenodd" d="M20.1749 1.94526C19.4552 2.26521 18.6818 2.48144 17.8701 2.57869C18.6987 2.08081 19.3349 1.29247 19.6345 0.353155C18.8592 0.814099 18.0004 1.14889 17.0863 1.32933C16.3543 0.547516 15.3114 0.05896 14.1572 0.05896C11.941 0.05896 10.1442 1.86006 10.1442 4.08158C10.1442 4.39686 10.1798 4.7039 10.2482 4.99831C6.91308 4.83055 3.95622 3.22905 1.97702 0.795308C1.6316 1.38944 1.43371 2.08046 1.43371 2.81767C1.43371 4.21326 2.14221 5.44455 3.21896 6.16591C2.5611 6.14504 1.94239 5.96409 1.4013 5.66279C1.40101 5.67957 1.40101 5.69643 1.40101 5.71336C1.40101 7.66241 2.78425 9.2883 4.62001 9.6578C4.28325 9.74975 3.92875 9.79888 3.56273 9.79888C3.30416 9.79888 3.05276 9.7737 2.80779 9.72673C3.3184 11.3249 4.80037 12.4879 6.55636 12.5204C5.18299 13.5993 3.45269 14.2424 1.57265 14.2424C1.24877 14.2424 0.92932 14.2234 0.615383 14.1863C2.39126 15.3276 4.5006 15.9935 6.76677 15.9935C14.1479 15.9935 18.1841 9.86386 18.1841 4.54805C18.1841 4.37363 18.1803 4.20014 18.1725 4.02765C18.9565 3.46049 19.6369 2.75197 20.1749 1.94526Z" fill="white"/>
</g>
</g>
</svg>
